<svg xmlns="http://www.w3.org/2000/svg" xml:space="preserve" viewBox="0 0 6048 6048"><path fill="#fff" d="M3250.97 2346.08c117.62-244.4 275.15-488.87 469.78-718.24 200.89-236.75 420.67-433.11 644.09-584.11a2123.722 2123.722 0 0 1 98.31-66.391c393.95-250.295 823.77-341.548 1192.57-285.055 94.22 14.434 127.02 90.754 139.44 110.947 93.75 152.527 62.57 381.489-80.1 642.129-75.37 137.69-67.74 90.02-93.41 152.48-63.57 154.71-172.58 510.47-182.28 817.47-4.84 153.19 26.49 394.34 8.59 547.04-26.88 229.21-161.6 311.18-366.15 282.38 0 0-67.71-9.6-97.69-17.23-40.06-10.2-92.52-23.34-153.24-37.86l81.51 59.35c385.73 280.88 485.11 842.33 221.97 1254.09l-83.69 130.94c30.7 190.29-34.36 392.09-186.04 520.57l-39.63 33.56c-164.45 139.29-384.39 153.17-558.53 54.08l-45.09 33.82c-204.38 153.23-486.43 100.59-629.98-117.58l-430.14-659.07c-81.15-150.94-128.87-325.2-132.21-511.46l-.71-39.83c-1.4-16.87-2.49-33.83-3.27-50.88h-2.58c-.79 19.5-1.99 38.9-3.59 58.17l-.7 39.84c-3.35 186.26-51.07 360.52-132.21 511.46l-430.14 659.07c-143.55 218.17-425.6 270.8-629.98 117.57l-45.09-33.81c-174.14 99.08-394.09 85.21-558.53-54.08l-39.63-33.56c-151.68-128.49-216.745-330.28-186.043-520.57l-83.695-130.95c-263.136-411.75-163.755-973.21 221.978-1254.08l96.4-70.2c-67.07 15.93-124.85 30.39-168.14 41.41-29.98 7.63-97.688 17.23-97.688 17.23-204.551 28.8-339.272-53.17-366.146-282.38-17.903-152.7 13.425-393.85 8.584-547.04-9.699-307-118.706-662.76-182.275-817.47-25.667-62.46-18.04-14.79-93.415-152.48-142.666-260.64-173.849-489.602-80.093-642.129 12.412-20.193 45.214-96.513 139.441-110.947 368.798-56.493 798.622 34.76 1192.562 285.055a2118.677 2118.677 0 0 1 98.32 66.391c223.42 151 443.2 347.36 644.08 584.11 194.63 229.37 352.17 473.84 469.78 718.24 49.58-91.18 132.91-142.48 227.35-142.48s177.77 51.3 227.35 142.48Z"/></svg>