<svg xmlns="http://www.w3.org/2000/svg" viewBox="0 0 1452 1452"><path fill="currentColor" d="M725.669 684.169c85.954-174.908 196.522-329.297 331.704-463.171 45.917-43.253 98.131-74.732 156.638-94.443 80.779-23.002 127.157 10.154 139.131 99.467a3714.722 3714.722 0 0 1-31.327 430.015c-29.111 113.446-96.987 180.762-203.629 201.947a627.097 627.097 0 0 1-108.726 8.038c49.745 11.389 95.815 32.154 138.21 62.292 77.217 64.765 90.425 142.799 39.62 234.097-37.567 57.717-83.945 104.938-139.131 141.664-82.806 48.116-154.983 33.716-216.529-43.202-28.935-38.951-52.278-81.818-70.026-128.603a10250.423 10250.423 0 0 1-35.935-102.481 10250.335 10250.335 0 0 1-35.934 102.481c-17.748 46.785-41.091 89.652-70.027 128.603-61.545 76.918-133.722 91.318-216.529 43.202-55.186-36.726-101.564-83.947-139.131-141.664-50.804-91.298-37.597-169.332 39.62-234.097 42.396-30.138 88.466-50.903 138.21-62.292a627.078 627.078 0 0 1-108.725-8.038c-106.643-21.185-174.519-88.501-203.629-201.947a3714.723 3714.723 0 0 1-31.328-430.015c11.975-89.313 58.352-122.469 139.132-99.467 58.507 19.711 110.72 51.19 156.637 94.443 135.183 133.874 245.751 288.263 331.704 463.171Z"/></svg>