<svg width="100%" height="100%" viewBox="0 0 6048 6048" version="1.1" xmlns="http://www.w3.org/2000/svg"
     xml:space="preserve">
        <path d="M3250.97,2346.08C3368.59,2101.68 3526.12,1857.21 3720.75,1627.84C3921.64,1391.09 4141.42,1194.73 4364.84,1043.73C4396.77,1020.84 4429.55,998.691 4463.15,977.339C4857.1,727.044 5286.92,635.791 5655.72,692.284C5749.94,706.718 5782.74,783.038 5795.16,803.231C5888.91,955.758 5857.73,1184.72 5715.06,1445.36C5639.69,1583.05 5647.32,1535.38 5621.65,1597.84C5558.08,1752.55 5449.07,2108.31 5439.37,2415.31C5434.53,2568.5 5465.86,2809.65 5447.96,2962.35C5421.08,3191.56 5286.36,3273.53 5081.81,3244.73C5081.81,3244.73 5014.1,3235.13 4984.12,3227.5C4944.06,3217.3 4891.6,3204.16 4830.88,3189.64L4912.39,3248.99C5298.12,3529.87 5397.5,4091.32 5134.36,4503.08L5050.67,4634.02C5081.37,4824.31 5016.31,5026.11 4864.63,5154.59L4825,5188.15C4660.55,5327.44 4440.61,5341.32 4266.47,5242.23L4221.38,5276.05C4017,5429.28 3734.95,5376.64 3591.4,5158.47L3161.26,4499.4C3080.11,4348.46 3032.39,4174.2 3029.05,3987.94L3028.34,3948.11C3026.94,3931.24 3025.85,3914.28 3025.07,3897.23C3024.6,3897.23 3024.11,3897.23 3023.62,3897.23C3023.24,3897.23 3022.86,3897.23 3022.49,3897.23C3021.7,3916.73 3020.5,3936.13 3018.9,3955.4L3018.2,3995.24C3014.85,4181.5 2967.13,4355.76 2885.99,4506.7L2455.85,5165.77C2312.3,5383.94 2030.25,5436.57 1825.87,5283.34L1780.78,5249.53C1606.64,5348.61 1386.69,5334.74 1222.25,5195.45L1182.62,5161.89C1030.94,5033.4 965.875,4831.61 996.577,4641.32L912.882,4510.37C649.746,4098.62 749.127,3537.16 1134.86,3256.29L1231.26,3186.09C1164.19,3202.02 1106.41,3216.48 1063.12,3227.5C1033.14,3235.13 965.432,3244.73 965.432,3244.73C760.881,3273.53 626.16,3191.56 599.286,2962.35C581.383,2809.65 612.711,2568.5 607.87,2415.31C598.171,2108.31 489.164,1752.55 425.595,1597.84C399.928,1535.38 407.555,1583.05 332.18,1445.36C189.514,1184.72 158.331,955.758 252.087,803.231C264.499,783.038 297.301,706.718 391.528,692.284C760.326,635.791 1190.15,727.044 1584.09,977.339C1617.7,998.691 1650.48,1020.84 1682.41,1043.73C1905.83,1194.73 2125.61,1391.09 2326.49,1627.84C2521.12,1857.21 2678.66,2101.68 2796.27,2346.08C2845.85,2254.9 2929.18,2203.6 3023.62,2203.6C3118.06,2203.6 3201.39,2254.9 3250.97,2346.08Z" fill="currentColor"/>
</svg>
